<svg width="20" height="18" viewBox="0 0 20 18" fill="none" xmlns="http://www.w3.org/2000/svg">
<path d="M10.2223 0C8.99664 0 7.78297 0.237099 6.6506 0.697759C5.51823 1.15842 4.48933 1.83362 3.62265 2.68481C1.87231 4.40386 0.888977 6.7354 0.888977 9.16651C0.888977 13.2181 3.56764 16.6555 7.27298 17.8747C7.73964 17.948 7.88898 17.6639 7.88898 17.4164V15.8672C5.30364 16.4172 4.75298 14.6389 4.75298 14.6389C4.32364 13.5756 3.71698 13.2914 3.71698 13.2914C2.86764 12.7231 3.78231 12.7414 3.78231 12.7414C4.71564 12.8056 5.21031 13.6856 5.21031 13.6856C6.02231 15.0789 7.39431 14.6664 7.92631 14.4464C8.01031 13.8506 8.25298 13.4473 8.51431 13.2181C6.44231 12.9889 4.26764 12.2006 4.26764 8.70818C4.26764 7.6907 4.62231 6.87488 5.22898 6.22406C5.13564 5.9949 4.80898 5.04158 5.32231 3.8041C5.32231 3.8041 6.10631 3.55661 7.88898 4.73909C8.62631 4.53742 9.42898 4.43659 10.2223 4.43659C11.0156 4.43659 11.8183 4.53742 12.5556 4.73909C14.3383 3.55661 15.1223 3.8041 15.1223 3.8041C15.6356 5.04158 15.309 5.9949 15.2156 6.22406C15.8223 6.87488 16.177 7.6907 16.177 8.70818C16.177 12.2098 13.993 12.9798 11.9116 13.2089C12.2476 13.4931 12.5556 14.0523 12.5556 14.9047V17.4164C12.5556 17.6639 12.705 17.9572 13.181 17.8747C16.8863 16.6464 19.5556 13.2181 19.5556 9.16651C19.5556 7.96275 19.3142 6.77077 18.8452 5.65864C18.3761 4.54651 17.6887 3.536 16.822 2.68481C15.9553 1.83362 14.9264 1.15842 13.794 0.697759C12.6616 0.237099 11.448 0 10.2223 0Z" fill="black"/>
</svg>
