<svg width="18" height="18" viewBox="0 0 18 18" fill="none" xmlns="http://www.w3.org/2000/svg">
<path d="M15.2099 0.777771C15.7141 0.777771 16.1977 0.978079 16.5543 1.33463C16.9108 1.69118 17.1111 2.17477 17.1111 2.67901V15.9876C17.1111 16.4919 16.9108 16.9755 16.5543 17.332C16.1977 17.6886 15.7141 17.8889 15.2099 17.8889H1.90123C1.397 17.8889 0.913409 17.6886 0.556859 17.332C0.200308 16.9755 0 16.4919 0 15.9876V2.67901C0 2.17477 0.200308 1.69118 0.556859 1.33463C0.913409 0.978079 1.397 0.777771 1.90123 0.777771H15.2099ZM14.7346 15.5123V10.4741C14.7346 9.65216 14.4081 8.86391 13.8269 8.28274C13.2457 7.70156 12.4575 7.37506 11.6356 7.37506C10.8275 7.37506 9.88642 7.86938 9.43013 8.61086V7.55567H6.7779V15.5123H9.43013V10.8258C9.43013 10.0938 10.0195 9.49493 10.7515 9.49493C11.1045 9.49493 11.443 9.63515 11.6925 9.88473C11.9421 10.1343 12.0823 10.4728 12.0823 10.8258V15.5123H14.7346ZM3.6884 6.0632C4.11196 6.0632 4.51817 5.89495 4.81767 5.59544C5.11717 5.29594 5.28543 4.88973 5.28543 4.46617C5.28543 3.58209 4.57247 2.85962 3.6884 2.85962C3.26231 2.85962 2.85368 3.02888 2.5524 3.33017C2.25111 3.63145 2.08185 4.04008 2.08185 4.46617C2.08185 5.35024 2.80432 6.0632 3.6884 6.0632ZM5.00975 15.5123V7.55567H2.37654V15.5123H5.00975Z" fill="black"/>
</svg>
